ffmpeg started on 2025-07-06 at 18:24:59
Report written to "D:\Convert\FFMetrics\reports\psnr_report-6.txt"
Log level: 32
Command line:
ffmpeg -hide_banner -nostdin -i "G:\\\xc0\xed\xe8\xec\xe5\\\xce\xed\xe3\xee\xe8\xed\xe3\xe8\\!_37_\xc7\xe8\xec\xe0_2025\\JamClub\\\xc3\xee\xeb\xf3\xe1\xe0\xff \xf8\xea\xe0\xf2\xf3\xeb\xea\xe0\\JamClub_Ao_no_Hako_25_1080p_HEVC.mkv" -i "G:\\\xc0\xed\xe8\xec\xe5\\\xce\xed\xe3\xee\xe8\xed\xe3\xe8\\!_37_\xc7\xe8\xec\xe0_2025\\JamClub\\\xc3\xee\xeb\xf3\xe1\xe0\xff \xf8\xea\xe0\xf2\xf3\xeb\xea\xe0\\JamClub_Ao_no_Hako_25_1080p.mp4" -lavfi "[0:v]settb=AVTB,setpts=PTS-STARTPTS,format=pix_fmts=yuv420p10,fps=24000/1001,scale=1920:1080:flags=bicubic[main];[1:v]settb=AVTB,setpts=PTS-STARTPTS,format=pix_fmts=yuv420p,fps=24000/1001,scale=1920:1080:flags=bicubic[ref];[main][ref]psnr=eof_action=endall:stats_file='D\\:/Convert/FFMetrics/logs/psnr_logfile-6.txt'" -f null -
Input #0, matroska,webm, from 'G:\Аниме\Онгоинги\!_37_Зима_2025\JamClub\Голубая шкатулка\JamClub_Ao_no_Hako_25_1080p_HEVC.mkv':
  Metadata:
    COMPATIBLE_BRANDS: isomiso2avc1mp41
    MAJOR_BRAND     : isom
    MINOR_VERSION   : 512
    ENCODER         : Lavf61.7.100
  Duration: 00:23:46.28, start: -0.001000, bitrate: 1108 kb/s
  Stream #0:0: Video: hevc (Main 10), yuv420p10le(tv, bt709, progressive), 1920x1080 [SAR 1:1 DAR 16:9], 23.98 fps, 23.98 tbr, 1k tbn (default)
      Metadata:
        HANDLER_NAME    : VideoHandler
        VENDOR_ID       : [0][0][0][0]
        ENCODER         : Lavc61.19.100 libx265
        BPS             : 911165
        DURATION        : 00:23:46.216708333
        NUMBER_OF_FRAMES: 34195
        NUMBER_OF_BYTES : 162439834
        _STATISTICS_WRITING_APP: mkvpropedit v66.0.0 ('Josie') 64-bit
        _STATISTICS_WRITING_DATE_UTC: 2025-07-06 11:38:26
        _STATISTICS_TAGS: BPS DURATION NUMBER_OF_FRAMES NUMBER_OF_BYTES
  Stream #0:1(eng): Audio: aac (LC), 48000 Hz, stereo, fltp (default)
      Metadata:
        HANDLER_NAME    : SoundHandler
        VENDOR_ID       : [0][0][0][0]
        ENCODER         : Lavc61.19.100 aac
        BPS             : 193281
        DURATION        : 00:23:46.243000000
        NUMBER_OF_FRAMES: 66856
        NUMBER_OF_BYTES : 34458233
        _STATISTICS_WRITING_APP: mkvpropedit v66.0.0 ('Josie') 64-bit
        _STATISTICS_WRITING_DATE_UTC: 2025-07-06 11:38:26
        _STATISTICS_TAGS: BPS DURATION NUMBER_OF_FRAMES NUMBER_OF_BYTES
Input #1, mov,mp4,m4a,3gp,3g2,mj2, from 'G:\Аниме\Онгоинги\!_37_Зима_2025\JamClub\Голубая шкатулка\JamClub_Ao_no_Hako_25_1080p.mp4':
  Metadata:
    major_brand     : isom
    minor_version   : 512
    compatible_brands: isomiso2avc1mp41
    encoder         : Lavf60.16.100
  Duration: 00:23:46.26, start: 0.000000, bitrate: 4180 kb/s
  Stream #1:0[0x1](und): Video: h264 (High) (avc1 / 0x31637661), yuv420p(progressive), 1920x1080 [SAR 1:1 DAR 16:9], 3982 kb/s, 23.98 fps, 23.98 tbr, 90k tbn (default)
      Metadata:
        handler_name    : VideoHandler
        vendor_id       : [0][0][0][0]
  Stream #1:1[0x2](eng): Audio: aac (LC) (mp4a / 0x6134706D), 48000 Hz, stereo, fltp, 191 kb/s (default)
      Metadata:
        handler_name    : SoundHandler
        vendor_id       : [0][0][0][0]
Stream mapping:
  Stream #0:0 (hevc) -> settb:default
  Stream #1:0 (h264) -> settb:default
  psnr:default -> Stream #0:0 (wrapped_avframe)
  Stream #0:1 -> #0:1 (aac (native) -> pcm_s16le (native))
Output #0, null, to 'pipe:':
  Metadata:
    COMPATIBLE_BRANDS: isomiso2avc1mp41
    MAJOR_BRAND     : isom
    MINOR_VERSION   : 512
    encoder         : Lavf61.7.100
  Stream #0:0: Video: wrapped_avframe, yuv420p10le(tv, bt709, progressive), 1920x1080 [SAR 1:1 DAR 16:9], q=2-31, 200 kb/s, 23.98 fps, 23.98 tbn
      Metadata:
        encoder         : Lavc61.19.100 wrapped_avframe
  Stream #0:1(eng): Audio: pcm_s16le, 48000 Hz, stereo, s16, 1536 kb/s (default)
      Metadata:
        HANDLER_NAME    : SoundHandler
        VENDOR_ID       : [0][0][0][0]
        _STATISTICS_TAGS: BPS DURATION NUMBER_OF_FRAMES NUMBER_OF_BYTES
        BPS             : 193281
        DURATION        : 00:23:46.243000000
        NUMBER_OF_FRAMES: 66856
        NUMBER_OF_BYTES : 34458233
        _STATISTICS_WRITING_APP: mkvpropedit v66.0.0 ('Josie') 64-bit
        _STATISTICS_WRITING_DATE_UTC: 2025-07-06 11:38:26
        encoder         : Lavc61.19.100 pcm_s16le
frame=  106 fps=0.0 q=-0.0 size=N/A time=00:00:04.42 bitrate=N/A speed=8.46x    frame=  261 fps=252 q=-0.0 size=N/A time=00:00:10.88 bitrate=N/A speed=10.5x    frame=  447 fps=289 q=-0.0 size=N/A time=00:00:18.64 bitrate=N/A speed=12.1x    frame=  706 fps=343 q=-0.0 size=N/A time=00:00:29.44 bitrate=N/A speed=14.3x    frame=  954 fps=369 q=-0.0 size=N/A time=00:00:39.78 bitrate=N/A speed=15.4x    frame= 1211 fps=391 q=-0.0 size=N/A time=00:00:50.50 bitrate=N/A speed=16.3x    frame= 1479 fps=410 q=-0.0 size=N/A time=00:01:01.68 bitrate=N/A speed=17.1x    frame= 1725 fps=419 q=-0.0 size=N/A time=00:01:11.94 bitrate=N/A speed=17.5x    frame= 1990 fps=428 q=-0.0 size=N/A time=00:01:22.99 bitrate=N/A speed=17.9x    frame= 2234 fps=433 q=-0.0 size=N/A time=00:01:33.17 bitrate=N/A speed=18.1x    frame= 2499 fps=441 q=-0.0 size=N/A time=00:01:44.22 bitrate=N/A speed=18.4x    frame= 2734 fps=442 q=-0.0 size=N/A time=00:01:54.03 bitrate=N/A speed=18.5x    frame= 2998 fps=447 q=-0.0 size=N/A time=00:02:05.04 bitrate=N/A speed=18.6x    frame= 3235 fps=448 q=-0.0 size=N/A time=00:02:14.92 bitrate=N/A speed=18.7x    frame= 3492 fps=452 q=-0.0 size=N/A time=00:02:25.64 bitrate=N/A speed=18.8x    frame= 3762 fps=456 q=-0.0 size=N/A time=00:02:36.90 bitrate=N/A speed=  19x    frame= 4008 fps=457 q=-0.0 size=N/A time=00:02:47.16 bitrate=N/A speed=19.1x    frame= 4244 fps=457 q=-0.0 size=N/A time=00:02:57.01 bitrate=N/A speed=19.1x    frame= 4465 fps=456 q=-0.0 size=N/A time=00:03:06.22 bitrate=N/A speed=  19x    frame= 4698 fps=455 q=-0.0 size=N/A time=00:03:15.94 bitrate=N/A speed=  19x    frame= 4901 fps=453 q=-0.0 size=N/A time=00:03:24.41 bitrate=N/A speed=18.9x    frame= 5151 fps=454 q=-0.0 size=N/A time=00:03:34.83 bitrate=N/A speed=18.9x    frame= 5332 fps=450 q=-0.0 size=N/A time=00:03:42.38 bitrate=N/A speed=18.8x    frame= 5559 fps=449 q=-0.0 size=N/A time=00:03:51.85 bitrate=N/A speed=18.7x    frame= 5795 fps=450 q=-0.0 size=N/A time=00:04:01.69 bitrate=N/A speed=18.7x    frame= 6033 fps=450 q=-0.0 size=N/A time=00:04:11.62 bitrate=N/A speed=18.8x    frame= 6242 fps=449 q=-0.0 size=N/A time=00:04:20.34 bitrate=N/A speed=18.7x    frame= 6478 fps=449 q=-0.0 size=N/A time=00:04:30.18 bitrate=N/A speed=18.7x    frame= 6718 fps=449 q=-0.0 size=N/A time=00:04:40.19 bitrate=N/A speed=18.7x    frame= 6969 fps=451 q=-0.0 size=N/A time=00:04:50.66 bitrate=N/A speed=18.8x    frame= 7226 fps=452 q=-0.0 size=N/A time=00:05:01.38 bitrate=N/A speed=18.9x    frame= 7466 fps=452 q=-0.0 size=N/A time=00:05:11.39 bitrate=N/A speed=18.9x    frame= 7725 fps=454 q=-0.0 size=N/A time=00:05:22.19 bitrate=N/A speed=18.9x    frame= 7979 fps=455 q=-0.0 size=N/A time=00:05:32.79 bitrate=N/A speed=  19x    frame= 8215 fps=455 q=-0.0 size=N/A time=00:05:42.63 bitrate=N/A speed=  19x    frame= 8485 fps=457 q=-0.0 size=N/A time=00:05:53.89 bitrate=N/A speed=19.1x    frame= 8728 fps=458 q=-0.0 size=N/A time=00:06:04.03 bitrate=N/A speed=19.1x    frame= 8981 fps=459 q=-0.0 size=N/A time=00:06:14.58 bitrate=N/A speed=19.1x    frame= 9172 fps=456 q=-0.0 size=N/A time=00:06:22.54 bitrate=N/A speed=  19x    frame= 9429 fps=457 q=-0.0 size=N/A time=00:06:33.26 bitrate=N/A speed=19.1x    frame= 9692 fps=459 q=-0.0 size=N/A time=00:06:44.23 bitrate=N/A speed=19.1x    frame= 9955 fps=460 q=-0.0 size=N/A time=00:06:55.20 bitrate=N/A speed=19.2x    frame=10221 fps=461 q=-0.0 size=N/A time=00:07:06.30 bitrate=N/A speed=19.2x    frame=10447 fps=460 q=-0.0 size=N/A time=00:07:15.72 bitrate=N/A speed=19.2x    frame=10696 fps=461 q=-0.0 size=N/A time=00:07:26.11 bitrate=N/A speed=19.2x    frame=10950 fps=462 q=-0.0 size=N/A time=00:07:36.70 bitrate=N/A speed=19.2x    frame=11213 fps=463 q=-0.0 size=N/A time=00:07:47.67 bitrate=N/A speed=19.3x    frame=11468 fps=463 q=-0.0 size=N/A time=00:07:58.31 bitrate=N/A speed=19.3x    frame=11732 fps=464 q=-0.0 size=N/A time=00:08:09.32 bitrate=N/A speed=19.4x    frame=12007 fps=466 q=-0.0 size=N/A time=00:08:20.79 bitrate=N/A speed=19.4x    frame=12277 fps=467 q=-0.0 size=N/A time=00:08:32.05 bitrate=N/A speed=19.5x    frame=12515 fps=467 q=-0.0 size=N/A time=00:08:41.97 bitrate=N/A speed=19.5x    frame=12721 fps=466 q=-0.0 size=N/A time=00:08:50.57 bitrate=N/A speed=19.4x    frame=12975 fps=466 q=-0.0 size=N/A time=00:09:01.16 bitrate=N/A speed=19.4x    frame=13156 fps=464 q=-0.0 size=N/A time=00:09:08.71 bitrate=N/A speed=19.3x    frame=13380 fps=463 q=-0.0 size=N/A time=00:09:18.05 bitrate=N/A speed=19.3x    frame=13631 fps=464 q=-0.0 size=N/A time=00:09:28.52 bitrate=N/A speed=19.3x    frame=13904 fps=465 q=-0.0 size=N/A time=00:09:39.91 bitrate=N/A speed=19.4x    frame=14163 fps=466 q=-0.0 size=N/A time=00:09:50.71 bitrate=N/A speed=19.4x    frame=14411 fps=466 q=-0.0 size=N/A time=00:10:01.05 bitrate=N/A speed=19.4x    frame=14669 fps=466 q=-0.0 size=N/A time=00:10:11.81 bitrate=N/A speed=19.5x    frame=14938 fps=467 q=-0.0 size=N/A time=00:10:23.03 bitrate=N/A speed=19.5x    frame=15188 fps=468 q=-0.0 size=N/A time=00:10:33.46 bitrate=N/A speed=19.5x    frame=15439 fps=468 q=-0.0 size=N/A time=00:10:43.93 bitrate=N/A speed=19.5x    frame=15725 fps=469 q=-0.0 size=N/A time=00:10:55.86 bitrate=N/A speed=19.6x    frame=15985 fps=470 q=-0.0 size=N/A time=00:11:06.70 bitrate=N/A speed=19.6x    frame=16228 fps=470 q=-0.0 size=N/A time=00:11:16.84 bitrate=N/A speed=19.6x    frame=16463 fps=470 q=-0.0 size=N/A time=00:11:26.64 bitrate=N/A speed=19.6x    frame=16725 fps=470 q=-0.0 size=N/A time=00:11:37.57 bitrate=N/A speed=19.6x    frame=16971 fps=470 q=-0.0 size=N/A time=00:11:47.83 bitrate=N/A speed=19.6x    frame=17198 fps=470 q=-0.0 size=N/A time=00:11:57.29 bitrate=N/A speed=19.6x    frame=17454 fps=470 q=-0.0 size=N/A time=00:12:08.01 bitrate=N/A speed=19.6x    frame=17725 fps=471 q=-0.0 size=N/A time=00:12:19.28 bitrate=N/A speed=19.6x    frame=17989 fps=471 q=-0.0 size=N/A time=00:12:30.29 bitrate=N/A speed=19.7x    frame=18248 fps=472 q=-0.0 size=N/A time=00:12:41.09 bitrate=N/A speed=19.7x    frame=18505 fps=472 q=-0.0 size=N/A time=00:12:51.81 bitrate=N/A speed=19.7x    frame=18775 fps=473 q=-0.0 size=N/A time=00:13:03.07 bitrate=N/A speed=19.7x    frame=19040 fps=473 q=-0.0 size=N/A time=00:13:14.12 bitrate=N/A speed=19.7x    frame=19308 fps=474 q=-0.0 size=N/A time=00:13:25.30 bitrate=N/A speed=19.8x    frame=19579 fps=475 q=-0.0 size=N/A time=00:13:36.60 bitrate=N/A speed=19.8x    frame=19781 fps=474 q=-0.0 size=N/A time=00:13:45.03 bitrate=N/A speed=19.8x    frame=20005 fps=473 q=-0.0 size=N/A time=00:13:54.37 bitrate=N/A speed=19.7x    frame=20254 fps=473 q=-0.0 size=N/A time=00:14:04.76 bitrate=N/A speed=19.7x    frame=20528 fps=474 q=-0.0 size=N/A time=00:14:16.18 bitrate=N/A speed=19.8x    frame=20744 fps=473 q=-0.0 size=N/A time=00:14:25.19 bitrate=N/A speed=19.7x    frame=21013 fps=474 q=-0.0 size=N/A time=00:14:36.41 bitrate=N/A speed=19.8x    frame=21229 fps=473 q=-0.0 size=N/A time=00:14:45.42 bitrate=N/A speed=19.7x    frame=21443 fps=473 q=-0.0 size=N/A time=00:14:54.35 bitrate=N/A speed=19.7x    frame=21669 fps=472 q=-0.0 size=N/A time=00:15:03.77 bitrate=N/A speed=19.7x    frame=21917 fps=472 q=-0.0 size=N/A time=00:15:14.12 bitrate=N/A speed=19.7x    frame=22183 fps=473 q=-0.0 size=N/A time=00:15:25.21 bitrate=N/A speed=19.7x    frame=22458 fps=473 q=-0.0 size=N/A time=00:15:36.68 bitrate=N/A speed=19.7x    frame=22721 fps=474 q=-0.0 size=N/A time=00:15:47.65 bitrate=N/A speed=19.8x    frame=22980 fps=474 q=-0.0 size=N/A time=00:15:58.45 bitrate=N/A speed=19.8x    frame=23229 fps=474 q=-0.0 size=N/A time=00:16:08.84 bitrate=N/A speed=19.8x    frame=23496 fps=475 q=-0.0 size=N/A time=00:16:19.97 bitrate=N/A speed=19.8x    frame=23745 fps=475 q=-0.0 size=N/A time=00:16:30.36 bitrate=N/A speed=19.8x    frame=23934 fps=474 q=-0.0 size=N/A time=00:16:38.24 bitrate=N/A speed=19.8x    frame=24184 fps=474 q=-0.0 size=N/A time=00:16:48.67 bitrate=N/A speed=19.8x    frame=24429 fps=474 q=-0.0 size=N/A time=00:16:58.89 bitrate=N/A speed=19.8x    frame=24678 fps=474 q=-0.0 size=N/A time=00:17:09.27 bitrate=N/A speed=19.8x    frame=24913 fps=474 q=-0.0 size=N/A time=00:17:19.07 bitrate=N/A speed=19.8x    frame=25167 fps=474 q=-0.0 size=N/A time=00:17:29.67 bitrate=N/A speed=19.8x    frame=25419 fps=474 q=-0.0 size=N/A time=00:17:40.18 bitrate=N/A speed=19.8x    frame=25662 fps=474 q=-0.0 size=N/A time=00:17:50.31 bitrate=N/A speed=19.8x    frame=25906 fps=474 q=-0.0 size=N/A time=00:18:00.49 bitrate=N/A speed=19.8x    frame=26180 fps=474 q=-0.0 size=N/A time=00:18:11.92 bitrate=N/A speed=19.8x    frame=26452 fps=475 q=-0.0 size=N/A time=00:18:23.26 bitrate=N/A speed=19.8x    frame=26706 fps=475 q=-0.0 size=N/A time=00:18:33.86 bitrate=N/A speed=19.8x    frame=26961 fps=475 q=-0.0 size=N/A time=00:18:44.49 bitrate=N/A speed=19.8x    frame=27200 fps=475 q=-0.0 size=N/A time=00:18:54.46 bitrate=N/A speed=19.8x    frame=27470 fps=476 q=-0.0 size=N/A time=00:19:05.72 bitrate=N/A speed=19.8x    frame=27734 fps=476 q=-0.0 size=N/A time=00:19:16.73 bitrate=N/A speed=19.9x    frame=28001 fps=476 q=-0.0 size=N/A time=00:19:27.87 bitrate=N/A speed=19.9x    frame=28257 fps=477 q=-0.0 size=N/A time=00:19:38.55 bitrate=N/A speed=19.9x    frame=28524 fps=477 q=-0.0 size=N/A time=00:19:49.68 bitrate=N/A speed=19.9x    frame=28795 fps=477 q=-0.0 size=N/A time=00:20:00.99 bitrate=N/A speed=19.9x    frame=29048 fps=477 q=-0.0 size=N/A time=00:20:11.54 bitrate=N/A speed=19.9x    frame=29301 fps=478 q=-0.0 size=N/A time=00:20:22.09 bitrate=N/A speed=19.9x    frame=29522 fps=477 q=-0.0 size=N/A time=00:20:31.31 bitrate=N/A speed=19.9x    frame=29774 fps=477 q=-0.0 size=N/A time=00:20:41.82 bitrate=N/A speed=19.9x    frame=30022 fps=477 q=-0.0 size=N/A time=00:20:52.16 bitrate=N/A speed=19.9x    frame=30288 fps=478 q=-0.0 size=N/A time=00:21:03.26 bitrate=N/A speed=19.9x    frame=30545 fps=478 q=-0.0 size=N/A time=00:21:13.98 bitrate=N/A speed=19.9x    frame=30757 fps=477 q=-0.0 size=N/A time=00:21:22.82 bitrate=N/A speed=19.9x    frame=30965 fps=477 q=-0.0 size=N/A time=00:21:31.49 bitrate=N/A speed=19.9x    frame=31193 fps=476 q=-0.0 size=N/A time=00:21:41.00 bitrate=N/A speed=19.9x    frame=31441 fps=476 q=-0.0 size=N/A time=00:21:51.35 bitrate=N/A speed=19.9x    frame=31669 fps=476 q=-0.0 size=N/A time=00:22:00.86 bitrate=N/A speed=19.9x    frame=31830 fps=475 q=-0.0 size=N/A time=00:22:07.57 bitrate=N/A speed=19.8x    frame=31976 fps=473 q=-0.0 size=N/A time=00:22:13.66 bitrate=N/A speed=19.7x    frame=32213 fps=473 q=-0.0 size=N/A time=00:22:23.55 bitrate=N/A speed=19.7x    frame=32445 fps=473 q=-0.0 size=N/A time=00:22:33.22 bitrate=N/A speed=19.7x    frame=32653 fps=473 q=-0.0 size=N/A time=00:22:41.90 bitrate=N/A speed=19.7x    frame=32823 fps=472 q=-0.0 size=N/A time=00:22:48.99 bitrate=N/A speed=19.7x    frame=33034 fps=471 q=-0.0 size=N/A time=00:22:57.79 bitrate=N/A speed=19.6x    frame=33271 fps=471 q=-0.0 size=N/A time=00:23:07.67 bitrate=N/A speed=19.6x    frame=33463 fps=470 q=-0.0 size=N/A time=00:23:15.68 bitrate=N/A speed=19.6x    frame=33655 fps=470 q=-0.0 size=N/A time=00:23:23.69 bitrate=N/A speed=19.6x    frame=33887 fps=469 q=-0.0 size=N/A time=00:23:33.37 bitrate=N/A speed=19.6x    frame=34125 fps=469 q=-0.0 size=N/A time=00:23:43.29 bitrate=N/A speed=19.6x    [Parsed_psnr_10 @ 00000213b8b252c0] PSNR y:48.066293 u:50.571911 v:50.422531 average:48.735740 min:29.683089 max:inf
[out#0/null @ 00000213a1e3c040] video:14693KiB audio:267424KiB subtitle:0KiB other streams:0KiB global headers:0KiB muxing overhead: unknown
frame=34195 fps=470 q=-0.0 Lsize=N/A time=00:23:46.21 bitrate=N/A speed=19.6x    
